<svg width="40" height="40" viewBox="0 0 40 40" fill="none" xmlns="http://www.w3.org/2000/svg">
<path d="M20 10.8333C14 10.8333 9.16663 15.6667 9.16663 21.6667C9.16663 27.6667 14 32.5 20 32.5C26 32.5 30.8333 27.6667 30.8333 21.6667C30.8333 15.6667 26 10.8333 20 10.8333ZM20 29.1667C15.8333 29.1667 12.5 25.8333 12.5 21.6667C12.5 17.5 15.8333 14.1667 20 14.1667C24.1666 14.1667 27.5 17.5 27.5 21.6667C27.5 25.8333 24.1666 29.1667 20 29.1667Z" fill="#00A344"/>
<path d="M7.08335 21.1667C10.4167 19.3333 14.5834 20.25 16.6667 23.25C16.75 23.3333 16.8334 23.3333 16.9167 23.3333L17.9167 22.75C18 22.6667 18.0834 22.5833 18 22.5C18 22.3333 17.9167 22.1667 17.9167 22C17.9167 21.9167 17.9167 21.9167 17.9167 21.8333C17.9167 21.75 17.9167 21.75 17.9167 21.6667C17.9167 21.5833 17.9167 21.5833 17.9167 21.5C17.9167 21.4167 17.9167 21.4167 18 21.3333C18 21.25 18 21.25 18.0834 21.1667C18.0834 21.1667 18.0834 21.0833 18.1667 21.0833C18.1667 21.0833 18.1667 21 18.25 21C18.25 21 18.25 20.9167 18.3334 20.9167L18.4167 20.8333L18.5 20.75L18.5834 20.6667L18.6667 20.5833L18.75 20.5C18.75 20.5 18.75 20.5 18.8334 20.5C19 20.4167 19.1667 20.3333 19.25 20.3333C19.3334 20.3333 19.4167 20.25 19.4167 20.0833V19C19.4167 18.9167 19.3334 18.8333 19.25 18.8333C15.5 18.5 12.5834 15.4167 12.5834 11.6667C12.5834 8.25001 15.0834 5.33334 18.3334 4.66668C18.4167 4.66668 18.5 4.58334 18.5 4.41668V4.00001C18.5 3.91668 18.4167 3.83334 18.3334 3.83334C13.6667 4.58334 10 8.66668 10 13.5833C10 14.6667 10.1667 15.75 10.5 16.75C9.50002 16.9167 8.41669 17.3333 7.50002 17.8333C3.16669 20.3333 1.41669 25.5 3.16669 29.9167C3.25002 30 3.33335 30 3.41669 30L3.66669 29.8333C3.75002 29.75 3.83335 29.6667 3.75002 29.5833C2.75002 26.4167 4.00002 22.8333 7.08335 21.1667ZM32.5 17.8333C31.5 17.25 30.5 16.9167 29.5 16.75C29.8334 15.75 30 14.75 30 13.5833C30 8.66668 26.3334 4.58334 21.5 3.83334C21.4167 3.83334 21.3334 3.91668 21.3334 4.00001V4.33334C21.3334 4.41668 21.4167 4.50001 21.5 4.58334C24.8334 5.25001 27.25 8.16668 27.25 11.5833C27.25 15.3333 24.3334 18.4167 20.5834 18.75C20.5 18.75 20.4167 18.8333 20.4167 18.9167V20C20.4167 20.0833 20.5 20.1667 20.5834 20.25C20.75 20.3333 20.9167 20.3333 21.0834 20.4167L21.1667 20.5C21.25 20.5 21.25 20.5833 21.25 20.5833C21.3334 20.6667 21.4167 20.75 21.5 20.8333L21.5834 20.9167L21.6667 21V21.0833V21.1667C21.6667 21.1667 21.6667 21.25 21.75 21.25C21.75 21.3333 21.75 21.3333 21.8334 21.4167C21.8334 21.5 21.8334 21.5 21.8334 21.5833C21.8334 21.6667 21.8334 21.6667 21.8334 21.75C21.8334 21.75 21.8334 21.75 21.8334 21.8333V21.9167C21.8334 21.9167 21.8334 21.9167 21.8334 22C21.8334 22.1667 21.8334 22.3333 21.75 22.5C21.75 22.5833 21.75 22.6667 21.8334 22.75L22.8334 23.3333C22.9167 23.4167 23 23.3333 23.0834 23.25C25.25 20.25 29.4167 19.25 32.6667 21.1667C35.6667 22.9167 37 26.4167 35.9167 29.5833C35.9167 29.6667 35.9167 29.75 36 29.8333L36.25 30C36.3334 30.0833 36.4167 30 36.5 29.9167C38.5834 25.4167 36.8334 20.25 32.5 17.8333ZM25.6667 33.5833C22.3334 31.75 21.0834 27.6667 22.75 24.3333C22.8334 24.25 22.75 24.1667 22.6667 24.0833L21.6667 23.5C21.5834 23.4167 21.5 23.5 21.4167 23.5C21.25 23.5833 21.1667 23.75 21 23.75C20.9167 23.75 20.9167 23.8333 20.8334 23.8333C20.75 23.8333 20.75 23.8333 20.6667 23.9167C20.5834 23.9167 20.4167 24 20.3334 24C20.25 24 20.25 24 20.1667 24C20.1667 24 20.1667 24 20.0834 24H20H19.9167H19.8334H19.75C19.75 24 19.75 24 19.6667 24C19.5834 24 19.5834 24 19.5 24C19.4167 24 19.4167 24 19.3334 24C19.25 24 19.25 24 19.1667 23.9167C19.1667 23.9167 19.0834 23.9167 19.0834 23.8333C19.0834 23.8333 19.0834 23.8333 19 23.8333C18.8334 23.75 18.75 23.6667 18.5834 23.5833C18.5 23.5 18.4167 23.5 18.3334 23.5833L17.3334 24.1667C17.25 24.25 17.25 24.3333 17.25 24.4167C18.8334 27.75 17.5834 31.75 14.3334 33.6667C11.3334 35.4167 7.50002 34.75 5.25002 32.25C5.16669 32.1667 5.08335 32.1667 5.00002 32.1667L4.75002 32.3333C4.66669 32.4167 4.66669 32.5 4.66669 32.5833C7.66669 36.3333 13.1667 37.4167 17.5 34.9167C18.5 34.3333 19.3334 33.6667 20 32.9167C20.6667 33.6667 21.5 34.4167 22.5 34.9167C26.8334 37.4167 32.25 36.25 35.3334 32.5833C35.4167 32.5 35.3334 32.4167 35.25 32.3333L35 32.0833C34.9167 32 34.8334 32.0833 34.75 32.1667C32.5 34.5833 28.6667 35.25 25.6667 33.5833Z" fill="#00C853"/>
</svg>
