<svg width="24" height="24" viewBox="0 0 24 24" fill="none" xmlns="http://www.w3.org/2000/svg">
<path fill-rule="evenodd" clip-rule="evenodd" d="M12 22.5C17.799 22.5 22.5 17.799 22.5 12C22.5 6.20101 17.799 1.5 12 1.5C6.20101 1.5 1.5 6.20101 1.5 12C1.5 17.799 6.20101 22.5 12 22.5ZM18.4678 8.90535C18.3126 8.35215 17.8552 7.91655 17.2743 7.76873C16.2216 7.5 12 7.5 12 7.5C12 7.5 7.7784 7.5 6.72564 7.76873C6.14476 7.91655 5.68729 8.35215 5.53204 8.90535C5.25 9.90802 5.25 12 5.25 12C5.25 12 5.25 14.0919 5.53204 15.0947C5.68729 15.6479 6.14476 16.0835 6.72564 16.2313C7.7784 16.5 12 16.5 12 16.5C12 16.5 16.2216 16.5 17.2743 16.2313C17.8552 16.0835 18.3126 15.6479 18.4678 15.0947C18.75 14.0919 18.75 12 18.75 12C18.75 12 18.75 9.90802 18.4678 8.90535ZM11.25 9.75L14.25 12.0001L11.25 14.25V9.75Z" fill="#222222"/>
</svg>
