<svg width="21" height="20" viewBox="0 0 21 20" fill="none" xmlns="http://www.w3.org/2000/svg">
<path fill-rule="evenodd" clip-rule="evenodd" d="M14.5708 8.5C14.5708 11.5376 12.1084 14 9.0708 14C6.03323 14 3.5708 11.5376 3.5708 8.5C3.5708 5.46243 6.03323 3 9.0708 3C12.1084 3 14.5708 5.46243 14.5708 8.5ZM13.2999 13.4362C12.1631 14.411 10.6857 15 9.0708 15C5.48095 15 2.5708 12.0899 2.5708 8.5C2.5708 4.91015 5.48095 2 9.0708 2C12.6607 2 15.5708 4.91015 15.5708 8.5C15.5708 10.1149 14.9818 11.5923 14.007 12.7291L18.0513 16.7734C18.2465 16.9686 18.2465 17.2852 18.0513 17.4805C17.856 17.6757 17.5394 17.6757 17.3442 17.4805L13.2999 13.4362Z" fill="#616161"/>
</svg>
