<svg width="24" height="24" viewBox="0 0 24 24" fill="none" xmlns="http://www.w3.org/2000/svg">
<path d="M14.5301 18.92C14.3985 18.9207 14.268 18.8955 14.1462 18.8457C14.0244 18.796 13.9136 18.7227 13.8201 18.63L7.89011 12.71C7.70738 12.5183 7.6038 12.2647 7.60011 12C7.59935 11.8684 7.62458 11.7379 7.67434 11.6161C7.72411 11.4942 7.79743 11.3834 7.89011 11.29L13.8201 5.36997C14.0114 5.20615 14.2575 5.12054 14.5092 5.13026C14.7608 5.13998 14.9996 5.24432 15.1777 5.42241C15.3558 5.60051 15.4601 5.83924 15.4698 6.09092C15.4795 6.3426 15.3939 6.58867 15.2301 6.77997L10.0001 12L15.2101 17.22C15.3964 17.4073 15.5009 17.6608 15.5009 17.925C15.5009 18.1892 15.3964 18.4426 15.2101 18.63C15.0288 18.8099 14.7855 18.9137 14.5301 18.92Z" fill="#C4CADA"/>
</svg>
