<svg width="40" height="40" viewBox="0 0 40 40" fill="none" xmlns="http://www.w3.org/2000/svg">
<path d="M33.3333 33.3333C27.5833 33.3333 20 36.6667 20 36.6667V18.3333C20 18.3333 27.5 15 35 15L33.3333 33.3333Z" fill="#5C6BC0"/>
<path d="M6.66667 33.3333C12.4167 33.3333 20 36.6667 20 36.6667V18.3333C20 18.3333 12.5 15 5 15L6.66667 33.3333Z" fill="#7986CB"/>
<path d="M20 16.6667C23.6819 16.6667 26.6667 13.6819 26.6667 10C26.6667 6.31811 23.6819 3.33334 20 3.33334C16.3181 3.33334 13.3334 6.31811 13.3334 10C13.3334 13.6819 16.3181 16.6667 20 16.6667Z" fill="#FFB74D"/>
<path d="M34.1667 26.6667H35C35.5 26.6667 35.8334 26.3334 35.8334 25.8334V22.5C35.8334 22 35.5 21.6667 35 21.6667H34.1667C32.75 21.6667 31.6667 22.75 31.6667 24.1667C31.6667 25.5834 32.75 26.6667 34.1667 26.6667Z" fill="#FFB74D"/>
<path d="M5.83335 21.6667H5.00002C4.50002 21.6667 4.16669 22 4.16669 22.5V25.8334C4.16669 26.3334 4.50002 26.6667 5.00002 26.6667H5.83335C7.25002 26.6667 8.33335 25.5834 8.33335 24.1667C8.33335 22.75 7.25002 21.6667 5.83335 21.6667Z" fill="#FFB74D"/>
</svg>
