<svg width="40" height="40" viewBox="0 0 40 40" fill="none" xmlns="http://www.w3.org/2000/svg">
<path d="M35.8334 34.1667H4.16669V35.8333H35.8334V34.1667Z" fill="#F57C00"/>
<path d="M29.1667 10.8333C28.8333 10.8333 28.5 10.8333 28.1667 10.9167C27.4167 7.08332 24.0833 4.16666 20 4.16666C16.5833 4.16666 13.6667 6.24999 12.3333 9.16666C12.0833 9.16666 11.9167 9.16666 11.6667 9.16666C8 9.16666 5 12.1667 5 15.8333C5 19.5 8 22.5 11.6667 22.5C13.6667 22.5 27.0833 22.5 29.1667 22.5C32.4167 22.5 35 19.9167 35 16.6667C35 13.4167 32.4167 10.8333 29.1667 10.8333Z" fill="#4CAF50"/>
<path d="M23.3334 17.5C23.3334 15.6667 21.8334 14.1667 20 14.1667C18.1667 14.1667 16.6667 15.6667 16.6667 17.5C16.6667 17.9167 16.6667 34.1667 16.6667 34.1667H23.3334C23.3334 34.1667 23.3334 17.9167 23.3334 17.5Z" fill="#942A09"/>
</svg>
