<svg width="24" height="24" viewBox="0 0 24 24" fill="none" xmlns="http://www.w3.org/2000/svg">
<path fill-rule="evenodd" clip-rule="evenodd" d="M12 22.5C17.799 22.5 22.5 17.799 22.5 12C22.5 6.20101 17.799 1.5 12 1.5C6.20101 1.5 1.5 6.20101 1.5 12C1.5 17.799 6.20101 22.5 12 22.5ZM15.2035 9.5175C15.6 9.5175 15.923 9.195 15.923 8.7975C15.923 8.40052 15.6 8.0775 15.2035 8.07803C14.8065 8.07803 14.483 8.40052 14.483 8.7975C14.483 9.19447 14.806 9.5175 15.2035 9.5175ZM9.75 12C9.75 13.2431 10.7569 14.25 12 14.25C13.2431 14.25 14.25 13.2431 14.25 12C14.25 10.7569 13.2431 9.75 12 9.75C10.7569 9.75 9.75 10.7569 9.75 12ZM8.919 12C8.919 10.299 10.298 8.919 12 8.919C13.7015 8.919 15.081 10.2975 15.081 12C15.081 13.701 13.703 15.081 12 15.081C10.299 15.081 8.919 13.7025 8.919 12ZM14.5828 6.79581C13.9094 6.76651 13.706 6.75798 12.0007 6.75798L11.9767 6.742C10.2944 6.742 10.0751 6.74975 9.4206 6.77288L9.38985 6.77397C8.76697 6.80593 8.43097 6.90983 8.2074 6.99827C7.90448 7.10962 7.69628 7.25347 7.47321 7.4767C7.24907 7.701 7.10585 7.90875 6.99405 8.2125C6.9062 8.43622 6.80292 8.77935 6.77044 9.40267L6.76967 9.4245C6.74632 10.0867 6.7385 10.3081 6.7385 11.9925C6.7385 13.6784 6.74634 13.898 6.76978 14.5547L6.77044 14.5733C6.80292 15.1967 6.9062 15.5398 6.99405 15.7641C7.10585 16.0603 7.24907 16.276 7.47321 16.4993C7.69628 16.7231 7.90448 16.8589 8.2074 16.9783C8.43097 17.0662 8.7744 17.17 9.39788 17.2021C10.0756 17.234 10.2752 17.242 11.9853 17.242C13.6938 17.242 13.8934 17.2351 14.5717 17.2042C15.1946 17.1765 15.538 17.0715 15.7621 16.9846C16.0576 16.8686 16.2738 16.7306 16.4969 16.5073C16.7205 16.2825 16.8557 16.0699 16.975 15.771C17.0628 15.5462 17.1666 15.2073 17.1991 14.584C17.231 13.9105 17.2385 13.7075 17.2385 12.0005C17.2385 10.2935 17.2315 10.091 17.2013 9.41655C17.173 8.79322 17.0687 8.4549 16.9819 8.23005C16.8658 7.93065 16.7274 7.71803 16.5044 7.49429C16.2796 7.27105 16.0678 7.13253 15.7685 7.01692C15.5444 6.92847 15.2058 6.82511 14.5828 6.79581ZM9.52703 6.036C10.1665 6.0075 10.3705 6 12 6C13.63 6 13.8335 6.006 14.474 6.036C15.112 6.0655 15.5475 6.1665 15.9305 6.315C16.326 6.4675 16.66 6.6735 16.9935 7.007C17.3265 7.3405 17.5325 7.6755 17.685 8.07C17.833 8.45198 17.934 8.88802 17.964 9.5265C17.993 10.1665 18 10.37 18 12C18 13.63 17.9945 13.8335 17.964 14.4735C17.9345 15.1115 17.833 15.5475 17.685 15.93C17.533 16.3255 17.3265 16.6595 16.9935 16.993C16.66 17.326 16.3245 17.532 15.9305 17.685C15.5475 17.833 15.112 17.934 14.474 17.964C13.8335 17.9925 13.63 18 12 18C10.3705 18 10.1665 17.994 9.52703 17.964C8.88802 17.9345 8.45303 17.833 8.07 17.685C7.67498 17.5325 7.3405 17.326 7.007 16.993C6.6735 16.6595 6.468 16.324 6.315 15.93C6.1665 15.5475 6.066 15.1115 6.036 14.4735C6.0075 13.8335 6 13.63 6 12C6 10.37 6.0065 10.1665 6.036 9.5265C6.0655 8.8875 6.1665 8.4525 6.315 8.07C6.4675 7.67498 6.6735 7.3405 7.007 7.007C7.3405 6.6735 7.6755 6.468 8.07 6.315C8.4525 6.1665 8.8875 6.066 9.52703 6.036Z" fill="#222222"/>
</svg>
