<svg width="40" height="40" viewBox="0 0 40 40" fill="none" xmlns="http://www.w3.org/2000/svg">
<path d="M23.3334 11.6667C25.6345 11.6667 27.5 9.8012 27.5 7.50001C27.5 5.19882 25.6345 3.33334 23.3334 3.33334C21.0322 3.33334 19.1667 5.19882 19.1667 7.50001C19.1667 9.8012 21.0322 11.6667 23.3334 11.6667Z" fill="#FF9800"/>
<path d="M24.1667 22.75L16.5 19.3333C15.6667 18.9167 15.25 20.1667 14.8334 21C14.4167 21.8333 11.4167 27 11.6667 27.9167C11.9167 28.6667 12.5834 29.0833 13.25 29.0833C13.4167 29.0833 13.5834 29.0833 13.75 29L24 25.8333C24.6667 25.6667 25.1667 25 25.1667 24.3333C25.1667 23.6667 24.75 23 24.1667 22.75Z" fill="#00796B"/>
<path d="M22.3334 12.6667L20.5 11.8333C19.4167 11.3333 18.0834 11.8333 17.5834 12.9167L7.6667 34.25C7.25003 35.0833 7.6667 36.0833 8.50003 36.5C8.75003 36.5833 9.00003 36.6667 9.25003 36.6667C9.9167 36.6667 10.5 36.3333 10.75 35.75C10.75 35.75 18.75 24.6667 19.4167 23.3333C20.0834 22 23.5 15.5833 23.5 15.5833C23.9167 14.5 23.5 13.1667 22.3334 12.6667Z" fill="#009688"/>
<path d="M33.75 13.0833C33.1667 12.4167 32.0833 12.25 31.4167 12.8333L27.25 16.3333L21.9167 13.4167C21 12.9167 19.75 13.0833 19.1667 14.1667C18.5 15.25 18.8333 16.5833 19.8333 17L26.75 19.8333C27 19.9167 27.25 20 27.5 20C27.9167 20 28.25 19.8333 28.5833 19.5833L33.5833 15.4167C34.25 14.8333 34.3333 13.8333 33.75 13.0833Z" fill="#FF9800"/>
<path d="M9.75 19.25L12.5833 15L16.4167 15.5L17.6667 12.9167C18 12.1667 18.6667 11.75 19.4167 11.6667C19.3333 11.6667 19.25 11.6667 19.25 11.6667H11.75C11.1667 11.6667 10.6667 11.9167 10.3333 12.4167L7 17.4167C6.5 18.1667 6.66667 19.25 7.5 19.75C7.66667 19.9167 8 20 8.33333 20C8.83333 20 9.41667 19.75 9.75 19.25Z" fill="#FF9800"/>
</svg>
