<svg width="40" height="40" viewBox="0 0 40 40" fill="none" xmlns="http://www.w3.org/2000/svg">
<path d="M30.8334 35H4.16669V26.6667H30.8334C33.1667 26.6667 35 28.5 35 30.8333C35 33.1667 33.1667 35 30.8334 35Z" fill="#B0BEC5"/>
<path d="M8.33331 28.3333C6.91665 28.3333 5.83331 29.4167 5.83331 30.8333C5.83331 32.25 6.91665 33.3333 8.33331 33.3333C9.74998 33.3333 10.8333 32.25 10.8333 30.8333C10.8333 29.4167 9.74998 28.3333 8.33331 28.3333ZM8.33331 31.6667C7.83331 31.6667 7.49998 31.3333 7.49998 30.8333C7.49998 30.3333 7.83331 30 8.33331 30C8.83331 30 9.16665 30.3333 9.16665 30.8333C9.16665 31.3333 8.83331 31.6667 8.33331 31.6667Z" fill="#37474F"/>
<path d="M15.8333 28.3333C14.4166 28.3333 13.3333 29.4167 13.3333 30.8333C13.3333 32.25 14.4166 33.3333 15.8333 33.3333C17.25 33.3333 18.3333 32.25 18.3333 30.8333C18.3333 29.4167 17.25 28.3333 15.8333 28.3333ZM15.8333 31.6667C15.3333 31.6667 15 31.3333 15 30.8333C15 30.3333 15.3333 30 15.8333 30C16.3333 30 16.6666 30.3333 16.6666 30.8333C16.6666 31.3333 16.3333 31.6667 15.8333 31.6667Z" fill="#37474F"/>
<path d="M30.8333 28.3333C29.4166 28.3333 28.3333 29.4167 28.3333 30.8333C28.3333 32.25 29.4166 33.3333 30.8333 33.3333C32.25 33.3333 33.3333 32.25 33.3333 30.8333C33.3333 29.4167 32.25 28.3333 30.8333 28.3333ZM30.8333 31.6667C30.3333 31.6667 30 31.3333 30 30.8333C30 30.3333 30.3333 30 30.8333 30C31.3333 30 31.6666 30.3333 31.6666 30.8333C31.6666 31.3333 31.3333 31.6667 30.8333 31.6667Z" fill="#37474F"/>
<path d="M23.3333 28.3333C21.9166 28.3333 20.8333 29.4167 20.8333 30.8333C20.8333 32.25 21.9166 33.3333 23.3333 33.3333C24.75 33.3333 25.8333 32.25 25.8333 30.8333C25.8333 29.4167 24.75 28.3333 23.3333 28.3333ZM23.3333 31.6667C22.8333 31.6667 22.5 31.3333 22.5 30.8333C22.5 30.3333 22.8333 30 23.3333 30C23.8333 30 24.1666 30.3333 24.1666 30.8333C24.1666 31.3333 23.8333 31.6667 23.3333 31.6667Z" fill="#37474F"/>
<path d="M29.1667 25.8333H9.16667C8.25 25.8333 7.5 25.0833 7.5 24.1667V5.83332C7.5 4.91666 8.25 4.16666 9.16667 4.16666H29.1667C30.0833 4.16666 30.8333 4.91666 30.8333 5.83332V24.1667C30.8333 25.0833 30.0833 25.8333 29.1667 25.8333Z" fill="#FF9800"/>
<path d="M22.0833 10.8333H16.25C15.5833 10.8333 15 10.25 15 9.58334C15 8.91668 15.5833 8.33334 16.25 8.33334H22.0833C22.75 8.33334 23.3333 8.91668 23.3333 9.58334C23.3333 10.25 22.75 10.8333 22.0833 10.8333Z" fill="#8A5100"/>
<path d="M30.8334 25.8333H4.16669V27.5H30.8334C32.6667 27.5 34.1667 29 34.1667 30.8333C34.1667 32.6667 32.6667 34.1667 30.8334 34.1667H4.16669V35.8333H30.8334C33.5834 35.8333 35.8334 33.5833 35.8334 30.8333C35.8334 28.0833 33.5834 25.8333 30.8334 25.8333Z" fill="#607D8B"/>
</svg>
