<svg width="40" height="40" viewBox="0 0 40 40" fill="none" xmlns="http://www.w3.org/2000/svg">
<path d="M31.6666 10.8333C28.9166 10.8333 26.6666 10.0833 26.6666 9.16666C26.6666 9.49999 26.6666 10.5 26.6666 10.8333C26.6666 11.75 28.9166 12.5 31.6666 12.5C34.4166 12.5 36.6666 11.75 36.6666 10.8333C36.6666 10.5 36.6666 9.49999 36.6666 9.16666C36.6666 10.0833 34.4166 10.8333 31.6666 10.8333Z" fill="#FFA000"/>
<path d="M31.6666 8.33332C28.9166 8.33332 26.6666 7.58332 26.6666 6.66666C26.6666 6.99999 26.6666 7.99999 26.6666 8.33332C26.6666 9.24999 28.9166 9.99999 31.6666 9.99999C34.4166 9.99999 36.6666 9.24999 36.6666 8.33332C36.6666 7.99999 36.6666 6.99999 36.6666 6.66666C36.6666 7.58332 34.4166 8.33332 31.6666 8.33332Z" fill="#FFA000"/>
<path d="M31.6666 13.3333C28.9166 13.3333 26.6666 12.5833 26.6666 11.6667C26.6666 12 26.6666 13 26.6666 13.3333C26.6666 14.25 28.9166 15 31.6666 15C34.4166 15 36.6666 14.25 36.6666 13.3333C36.6666 13 36.6666 12 36.6666 11.6667C36.6666 12.5833 34.4166 13.3333 31.6666 13.3333Z" fill="#FFA000"/>
<path d="M31.6666 15.8333C28.9166 15.8333 26.6666 15.0833 26.6666 14.1667C26.6666 14.5 26.6666 15.5 26.6666 15.8333C26.6666 16.75 28.9166 17.5 31.6666 17.5C34.4166 17.5 36.6666 16.75 36.6666 15.8333C36.6666 15.5 36.6666 14.5 36.6666 14.1667C36.6666 15.0833 34.4166 15.8333 31.6666 15.8333Z" fill="#FFA000"/>
<path d="M31.6666 18.3333C28.9166 18.3333 26.6666 17.5833 26.6666 16.6667C26.6666 17 26.6666 18 26.6666 18.3333C26.6666 19.25 28.9166 20 31.6666 20C34.4166 20 36.6666 19.25 36.6666 18.3333C36.6666 18 36.6666 17 36.6666 16.6667C36.6666 17.5833 34.4166 18.3333 31.6666 18.3333Z" fill="#FFA000"/>
<path d="M31.6666 20.8333C28.9166 20.8333 26.6666 20.0833 26.6666 19.1667C26.6666 19.5 26.6666 20.5 26.6666 20.8333C26.6666 21.75 28.9166 22.5 31.6666 22.5C34.4166 22.5 36.6666 21.75 36.6666 20.8333C36.6666 20.5 36.6666 19.5 36.6666 19.1667C36.6666 20.0833 34.4166 20.8333 31.6666 20.8333Z" fill="#FFA000"/>
<path d="M31.6666 23.3333C28.9166 23.3333 26.6666 22.5833 26.6666 21.6667C26.6666 22 26.6666 23 26.6666 23.3333C26.6666 24.25 28.9166 25 31.6666 25C34.4166 25 36.6666 24.25 36.6666 23.3333C36.6666 23 36.6666 22 36.6666 21.6667C36.6666 22.5833 34.4166 23.3333 31.6666 23.3333Z" fill="#FFA000"/>
<path d="M31.6666 25.8333C28.9166 25.8333 26.6666 25.0833 26.6666 24.1667C26.6666 24.5 26.6666 25.5 26.6666 25.8333C26.6666 26.75 28.9166 27.5 31.6666 27.5C34.4166 27.5 36.6666 26.75 36.6666 25.8333C36.6666 25.5 36.6666 24.5 36.6666 24.1667C36.6666 25.0833 34.4166 25.8333 31.6666 25.8333Z" fill="#FFA000"/>
<path d="M31.6666 28.3333C28.9166 28.3333 26.6666 27.5833 26.6666 26.6667C26.6666 27 26.6666 28 26.6666 28.3333C26.6666 29.25 28.9166 30 31.6666 30C34.4166 30 36.6666 29.25 36.6666 28.3333C36.6666 28 36.6666 27 36.6666 26.6667C36.6666 27.5833 34.4166 28.3333 31.6666 28.3333Z" fill="#FFA000"/>
<path d="M31.6666 30.8333C28.9166 30.8333 26.6666 30.0833 26.6666 29.1667C26.6666 29.5 26.6666 30.5 26.6666 30.8333C26.6666 31.75 28.9166 32.5 31.6666 32.5C34.4166 32.5 36.6666 31.75 36.6666 30.8333C36.6666 30.5 36.6666 29.5 36.6666 29.1667C36.6666 30.0833 34.4166 30.8333 31.6666 30.8333Z" fill="#FFA000"/>
<path d="M31.6666 33.3333C28.9166 33.3333 26.6666 32.5833 26.6666 31.6667C26.6666 32 26.6666 33 26.6666 33.3333C26.6666 34.25 28.9166 35 31.6666 35C34.4166 35 36.6666 34.25 36.6666 33.3333C36.6666 33 36.6666 32 36.6666 31.6667C36.6666 32.5833 34.4166 33.3333 31.6666 33.3333Z" fill="#FFA000"/>
<path d="M31.6666 8.33333C34.428 8.33333 36.6666 7.58714 36.6666 6.66667C36.6666 5.74619 34.428 5 31.6666 5C28.9052 5 26.6666 5.74619 26.6666 6.66667C26.6666 7.58714 28.9052 8.33333 31.6666 8.33333Z" fill="#FFC107"/>
<path d="M31.6666 10C29.3333 10 27.4166 9.5 26.8333 8.75C26.75 8.91667 26.6666 9 26.6666 9.16667C26.6666 10.0833 28.9166 10.8333 31.6666 10.8333C34.4166 10.8333 36.6666 10.0833 36.6666 9.16667C36.6666 9 36.5833 8.91667 36.5 8.75C35.9166 9.5 34 10 31.6666 10Z" fill="#FFC107"/>
<path d="M31.6666 12.5C29.3333 12.5 27.4166 12 26.8333 11.25C26.75 11.4167 26.6666 11.5 26.6666 11.6667C26.6666 12.5833 28.9166 13.3333 31.6666 13.3333C34.4166 13.3333 36.6666 12.5833 36.6666 11.6667C36.6666 11.5 36.5833 11.4167 36.5 11.25C35.9166 12 34 12.5 31.6666 12.5Z" fill="#FFC107"/>
<path d="M31.6666 15C29.3333 15 27.4166 14.5 26.8333 13.75C26.75 13.9167 26.6666 14 26.6666 14.1667C26.6666 15.0833 28.9166 15.8333 31.6666 15.8333C34.4166 15.8333 36.6666 15.0833 36.6666 14.1667C36.6666 14 36.5833 13.9167 36.5 13.75C35.9166 14.5 34 15 31.6666 15Z" fill="#FFC107"/>
<path d="M31.6666 17.5C29.3333 17.5 27.4166 17 26.8333 16.25C26.75 16.4167 26.6666 16.5 26.6666 16.6667C26.6666 17.5833 28.9166 18.3333 31.6666 18.3333C34.4166 18.3333 36.6666 17.5833 36.6666 16.6667C36.6666 16.5 36.5833 16.4167 36.5 16.25C35.9166 17 34 17.5 31.6666 17.5Z" fill="#FFC107"/>
<path d="M31.6666 20C29.3333 20 27.4166 19.5 26.8333 18.75C26.75 18.9167 26.6666 19 26.6666 19.1667C26.6666 20.0833 28.9166 20.8333 31.6666 20.8333C34.4166 20.8333 36.6666 20.0833 36.6666 19.1667C36.6666 19 36.5833 18.9167 36.5 18.75C35.9166 19.5 34 20 31.6666 20Z" fill="#FFC107"/>
<path d="M31.6666 22.5C29.3333 22.5 27.4166 22 26.8333 21.25C26.75 21.4167 26.6666 21.5 26.6666 21.6667C26.6666 22.5833 28.9166 23.3333 31.6666 23.3333C34.4166 23.3333 36.6666 22.5833 36.6666 21.6667C36.6666 21.5 36.5833 21.4167 36.5 21.25C35.9166 22 34 22.5 31.6666 22.5Z" fill="#FFC107"/>
<path d="M31.6666 25C29.3333 25 27.4166 24.5 26.8333 23.75C26.75 23.9167 26.6666 24 26.6666 24.1667C26.6666 25.0833 28.9166 25.8333 31.6666 25.8333C34.4166 25.8333 36.6666 25.0833 36.6666 24.1667C36.6666 24 36.5833 23.9167 36.5 23.75C35.9166 24.5 34 25 31.6666 25Z" fill="#FFC107"/>
<path d="M31.6666 27.5C29.3333 27.5 27.4166 27 26.8333 26.25C26.75 26.4167 26.6666 26.5 26.6666 26.6667C26.6666 27.5833 28.9166 28.3333 31.6666 28.3333C34.4166 28.3333 36.6666 27.5833 36.6666 26.6667C36.6666 26.5 36.5833 26.4167 36.5 26.25C35.9166 27 34 27.5 31.6666 27.5Z" fill="#FFC107"/>
<path d="M31.6666 30C29.3333 30 27.4166 29.5 26.8333 28.75C26.75 28.9167 26.6666 29 26.6666 29.1667C26.6666 30.0833 28.9166 30.8333 31.6666 30.8333C34.4166 30.8333 36.6666 30.0833 36.6666 29.1667C36.6666 29 36.5833 28.9167 36.5 28.75C35.9166 29.5 34 30 31.6666 30Z" fill="#FFC107"/>
<path d="M31.6666 32.5C29.3333 32.5 27.4166 32 26.8333 31.25C26.75 31.4167 26.6666 31.5 26.6666 31.6667C26.6666 32.5833 28.9166 33.3333 31.6666 33.3333C34.4166 33.3333 36.6666 32.5833 36.6666 31.6667C36.6666 31.5 36.5833 31.4167 36.5 31.25C35.9166 32 34 32.5 31.6666 32.5Z" fill="#FFC107"/>
<path d="M8.33337 15.8333C5.58337 15.8333 3.33337 15.0833 3.33337 14.1667C3.33337 14.5 3.33337 15.5 3.33337 15.8333C3.33337 16.75 5.58337 17.5 8.33337 17.5C11.0834 17.5 13.3334 16.75 13.3334 15.8333C13.3334 15.5 13.3334 14.5 13.3334 14.1667C13.3334 15.0833 11.0834 15.8333 8.33337 15.8333Z" fill="#FFA000"/>
<path d="M8.33337 13.3333C5.58337 13.3333 3.33337 12.5833 3.33337 11.6667C3.33337 12 3.33337 13 3.33337 13.3333C3.33337 14.25 5.58337 15 8.33337 15C11.0834 15 13.3334 14.25 13.3334 13.3333C13.3334 13 13.3334 12 13.3334 11.6667C13.3334 12.5833 11.0834 13.3333 8.33337 13.3333Z" fill="#FFA000"/>
<path d="M8.33337 18.3333C5.58337 18.3333 3.33337 17.5833 3.33337 16.6667C3.33337 17 3.33337 18 3.33337 18.3333C3.33337 19.25 5.58337 20 8.33337 20C11.0834 20 13.3334 19.25 13.3334 18.3333C13.3334 18 13.3334 17 13.3334 16.6667C13.3334 17.5833 11.0834 18.3333 8.33337 18.3333Z" fill="#FFA000"/>
<path d="M8.33337 20.8333C5.58337 20.8333 3.33337 20.0833 3.33337 19.1667C3.33337 19.5 3.33337 20.5 3.33337 20.8333C3.33337 21.75 5.58337 22.5 8.33337 22.5C11.0834 22.5 13.3334 21.75 13.3334 20.8333C13.3334 20.5 13.3334 19.5 13.3334 19.1667C13.3334 20.0833 11.0834 20.8333 8.33337 20.8333Z" fill="#FFA000"/>
<path d="M8.33337 23.3333C5.58337 23.3333 3.33337 22.5833 3.33337 21.6667C3.33337 22 3.33337 23 3.33337 23.3333C3.33337 24.25 5.58337 25 8.33337 25C11.0834 25 13.3334 24.25 13.3334 23.3333C13.3334 23 13.3334 22 13.3334 21.6667C13.3334 22.5833 11.0834 23.3333 8.33337 23.3333Z" fill="#FFA000"/>
<path d="M8.33337 25.8333C5.58337 25.8333 3.33337 25.0833 3.33337 24.1667C3.33337 24.5 3.33337 25.5 3.33337 25.8333C3.33337 26.75 5.58337 27.5 8.33337 27.5C11.0834 27.5 13.3334 26.75 13.3334 25.8333C13.3334 25.5 13.3334 24.5 13.3334 24.1667C13.3334 25.0833 11.0834 25.8333 8.33337 25.8333Z" fill="#FFA000"/>
<path d="M8.33337 28.3333C5.58337 28.3333 3.33337 27.5833 3.33337 26.6667C3.33337 27 3.33337 28 3.33337 28.3333C3.33337 29.25 5.58337 30 8.33337 30C11.0834 30 13.3334 29.25 13.3334 28.3333C13.3334 28 13.3334 27 13.3334 26.6667C13.3334 27.5833 11.0834 28.3333 8.33337 28.3333Z" fill="#FFA000"/>
<path d="M8.33337 30.8333C5.58337 30.8333 3.33337 30.0833 3.33337 29.1667C3.33337 29.5 3.33337 30.5 3.33337 30.8333C3.33337 31.75 5.58337 32.5 8.33337 32.5C11.0834 32.5 13.3334 31.75 13.3334 30.8333C13.3334 30.5 13.3334 29.5 13.3334 29.1667C13.3334 30.0833 11.0834 30.8333 8.33337 30.8333Z" fill="#FFA000"/>
<path d="M8.33337 33.3333C5.58337 33.3333 3.33337 32.5833 3.33337 31.6667C3.33337 32 3.33337 33 3.33337 33.3333C3.33337 34.25 5.58337 35 8.33337 35C11.0834 35 13.3334 34.25 13.3334 33.3333C13.3334 33 13.3334 32 13.3334 31.6667C13.3334 32.5833 11.0834 33.3333 8.33337 33.3333Z" fill="#FFA000"/>
<path d="M8.33337 13.3333C11.0948 13.3333 13.3334 12.5871 13.3334 11.6667C13.3334 10.7462 11.0948 10 8.33337 10C5.57195 10 3.33337 10.7462 3.33337 11.6667C3.33337 12.5871 5.57195 13.3333 8.33337 13.3333Z" fill="#FFC107"/>
<path d="M8.33337 15C6.00004 15 4.08337 14.5 3.50004 13.75C3.41671 13.9167 3.33337 14 3.33337 14.1667C3.33337 15.0833 5.58337 15.8333 8.33337 15.8333C11.0834 15.8333 13.3334 15.0833 13.3334 14.1667C13.3334 14 13.25 13.9167 13.1667 13.75C12.5834 14.5 10.6667 15 8.33337 15Z" fill="#FFC107"/>
<path d="M8.33337 17.5C6.00004 17.5 4.08337 17 3.50004 16.25C3.41671 16.4167 3.33337 16.5 3.33337 16.6667C3.33337 17.5833 5.58337 18.3333 8.33337 18.3333C11.0834 18.3333 13.3334 17.5833 13.3334 16.6667C13.3334 16.5 13.25 16.4167 13.1667 16.25C12.5834 17 10.6667 17.5 8.33337 17.5Z" fill="#FFC107"/>
<path d="M8.33337 20C6.00004 20 4.08337 19.5 3.50004 18.75C3.41671 18.9167 3.33337 19 3.33337 19.1667C3.33337 20.0833 5.58337 20.8333 8.33337 20.8333C11.0834 20.8333 13.3334 20.0833 13.3334 19.1667C13.3334 19 13.25 18.9167 13.1667 18.75C12.5834 19.5 10.6667 20 8.33337 20Z" fill="#FFC107"/>
<path d="M8.33337 22.5C6.00004 22.5 4.08337 22 3.50004 21.25C3.41671 21.4167 3.33337 21.5 3.33337 21.6667C3.33337 22.5833 5.58337 23.3333 8.33337 23.3333C11.0834 23.3333 13.3334 22.5833 13.3334 21.6667C13.3334 21.5 13.25 21.4167 13.1667 21.25C12.5834 22 10.6667 22.5 8.33337 22.5Z" fill="#FFC107"/>
<path d="M8.33337 25C6.00004 25 4.08337 24.5 3.50004 23.75C3.41671 23.9167 3.33337 24 3.33337 24.1667C3.33337 25.0833 5.58337 25.8333 8.33337 25.8333C11.0834 25.8333 13.3334 25.0833 13.3334 24.1667C13.3334 24 13.25 23.9167 13.1667 23.75C12.5834 24.5 10.6667 25 8.33337 25Z" fill="#FFC107"/>
<path d="M8.33337 27.5C6.00004 27.5 4.08337 27 3.50004 26.25C3.41671 26.4167 3.33337 26.5 3.33337 26.6667C3.33337 27.5833 5.58337 28.3333 8.33337 28.3333C11.0834 28.3333 13.3334 27.5833 13.3334 26.6667C13.3334 26.5 13.25 26.4167 13.1667 26.25C12.5834 27 10.6667 27.5 8.33337 27.5Z" fill="#FFC107"/>
<path d="M8.33337 30C6.00004 30 4.08337 29.5 3.50004 28.75C3.41671 28.9167 3.33337 29 3.33337 29.1667C3.33337 30.0833 5.58337 30.8333 8.33337 30.8333C11.0834 30.8333 13.3334 30.0833 13.3334 29.1667C13.3334 29 13.25 28.9167 13.1667 28.75C12.5834 29.5 10.6667 30 8.33337 30Z" fill="#FFC107"/>
<path d="M8.33337 32.5C6.00004 32.5 4.08337 32 3.50004 31.25C3.41671 31.4167 3.33337 31.5 3.33337 31.6667C3.33337 32.5833 5.58337 33.3333 8.33337 33.3333C11.0834 33.3333 13.3334 32.5833 13.3334 31.6667C13.3334 31.5 13.25 31.4167 13.1667 31.25C12.5834 32 10.6667 32.5 8.33337 32.5Z" fill="#FFC107"/>
<path d="M20 23.3333C17.25 23.3333 15 22.5833 15 21.6667C15 22 15 23 15 23.3333C15 24.25 17.25 25 20 25C22.75 25 25 24.25 25 23.3333C25 23 25 22 25 21.6667C25 22.5833 22.75 23.3333 20 23.3333Z" fill="#FFA000"/>
<path d="M20 20.8333C17.25 20.8333 15 20.0833 15 19.1667C15 19.5 15 20.5 15 20.8333C15 21.75 17.25 22.5 20 22.5C22.75 22.5 25 21.75 25 20.8333C25 20.5 25 19.5 25 19.1667C25 20.0833 22.75 20.8333 20 20.8333Z" fill="#FFA000"/>
<path d="M20 25.8333C17.25 25.8333 15 25.0833 15 24.1667C15 24.5 15 25.5 15 25.8333C15 26.75 17.25 27.5 20 27.5C22.75 27.5 25 26.75 25 25.8333C25 25.5 25 24.5 25 24.1667C25 25.0833 22.75 25.8333 20 25.8333Z" fill="#FFA000"/>
<path d="M20 28.3333C17.25 28.3333 15 27.5833 15 26.6667C15 27 15 28 15 28.3333C15 29.25 17.25 30 20 30C22.75 30 25 29.25 25 28.3333C25 28 25 27 25 26.6667C25 27.5833 22.75 28.3333 20 28.3333Z" fill="#FFA000"/>
<path d="M20 30.8333C17.25 30.8333 15 30.0833 15 29.1667C15 29.5 15 30.5 15 30.8333C15 31.75 17.25 32.5 20 32.5C22.75 32.5 25 31.75 25 30.8333C25 30.5 25 29.5 25 29.1667C25 30.0833 22.75 30.8333 20 30.8333Z" fill="#FFA000"/>
<path d="M20 33.3333C17.25 33.3333 15 32.5833 15 31.6667C15 32 15 33 15 33.3333C15 34.25 17.25 35 20 35C22.75 35 25 34.25 25 33.3333C25 33 25 32 25 31.6667C25 32.5833 22.75 33.3333 20 33.3333Z" fill="#FFA000"/>
<path d="M20 20.8333C22.7614 20.8333 25 20.0871 25 19.1667C25 18.2462 22.7614 17.5 20 17.5C17.2386 17.5 15 18.2462 15 19.1667C15 20.0871 17.2386 20.8333 20 20.8333Z" fill="#FFC107"/>
<path d="M20 22.5C17.6667 22.5 15.75 22 15.1667 21.25C15.0833 21.4167 15 21.5 15 21.6667C15 22.5833 17.25 23.3333 20 23.3333C22.75 23.3333 25 22.5833 25 21.6667C25 21.5 24.9167 21.4167 24.8333 21.25C24.25 22 22.3333 22.5 20 22.5Z" fill="#FFC107"/>
<path d="M20 25C17.6667 25 15.75 24.5 15.1667 23.75C15.0833 23.9167 15 24 15 24.1667C15 25.0833 17.25 25.8333 20 25.8333C22.75 25.8333 25 25.0833 25 24.1667C25 24 24.9167 23.9167 24.8333 23.75C24.25 24.5 22.3333 25 20 25Z" fill="#FFC107"/>
<path d="M20 27.5C17.6667 27.5 15.75 27 15.1667 26.25C15.0833 26.4167 15 26.5 15 26.6667C15 27.5833 17.25 28.3333 20 28.3333C22.75 28.3333 25 27.5833 25 26.6667C25 26.5 24.9167 26.4167 24.8333 26.25C24.25 27 22.3333 27.5 20 27.5Z" fill="#FFC107"/>
<path d="M20 30C17.6667 30 15.75 29.5 15.1667 28.75C15.0833 28.9167 15 29 15 29.1667C15 30.0833 17.25 30.8333 20 30.8333C22.75 30.8333 25 30.0833 25 29.1667C25 29 24.9167 28.9167 24.8333 28.75C24.25 29.5 22.3333 30 20 30Z" fill="#FFC107"/>
<path d="M20 32.5C17.6667 32.5 15.75 32 15.1667 31.25C15.0833 31.4167 15 31.5 15 31.6667C15 32.5833 17.25 33.3333 20 33.3333C22.75 33.3333 25 32.5833 25 31.6667C25 31.5 24.9167 31.4167 24.8333 31.25C24.25 32 22.3333 32.5 20 32.5Z" fill="#FFC107"/>
</svg>
