<svg width="24" height="24" viewBox="0 0 24 24" fill="none" xmlns="http://www.w3.org/2000/svg">
<path d="M10.39 18.92C10.2583 18.9207 10.1279 18.8955 10.006 18.8457C9.88421 18.796 9.77339 18.7227 9.67995 18.63C9.4937 18.4426 9.38916 18.1892 9.38916 17.925C9.38916 17.6608 9.4937 17.4073 9.67995 17.22L14.89 12L9.67995 6.77997C9.51613 6.58867 9.43052 6.3426 9.44024 6.09092C9.44996 5.83924 9.5543 5.60051 9.73239 5.42241C9.91048 5.24432 10.1492 5.13998 10.4009 5.13026C10.6526 5.12054 10.8987 5.20615 11.09 5.36997L17 11.29C17.0926 11.3834 17.166 11.4942 17.2157 11.6161C17.2655 11.7379 17.2907 11.8684 17.29 12C17.2863 12.2647 17.1827 12.5183 17 12.71L11.07 18.63C10.8886 18.8099 10.6453 18.9137 10.39 18.92Z" fill="#78829D"/>
</svg>
