<svg width="802" height="238" viewBox="0 0 802 238" fill="none" xmlns="http://www.w3.org/2000/svg">
<path d="M801 0.5H801.5V0H801V0.5ZM801 120V120.5H801.5V120H801ZM1 120V119.5H0.5V120H1ZM1 234H0.5V234.5H1V234ZM35.8536 234.354C36.0488 234.158 36.0488 233.842 35.8536 233.646L32.6716 230.464C32.4763 230.269 32.1597 230.269 31.9645 230.464C31.7692 230.66 31.7692 230.976 31.9645 231.172L34.7929 234L31.9645 236.828C31.7692 237.024 31.7692 237.34 31.9645 237.536C32.1597 237.731 32.4763 237.731 32.6716 237.536L35.8536 234.354ZM766 1H801V0H766V1ZM800.5 0.5V120H801.5V0.5H800.5ZM801 119.5H1V120.5H801V119.5ZM0.5 120V234H1.5V120H0.5ZM1 234.5H35.5V233.5H1V234.5Z" fill="#1363DF"/>
</svg>
