<svg width="40" height="40" viewBox="0 0 40 40" fill="none" xmlns="http://www.w3.org/2000/svg">
<path d="M28.3333 36.6667H11.6667C10.75 36.6667 10 35.9167 10 35V6.66667C10 5.75 10.75 5 11.6667 5H28.3333C29.25 5 30 5.75 30 6.66667V35C30 35.9167 29.25 36.6667 28.3333 36.6667Z" fill="#8BC34A"/>
<path d="M23.3333 10.8333H16.6667C16.1667 10.8333 15.8333 10.5 15.8333 10V4.16668C15.8333 3.66668 16.1667 3.33334 16.6667 3.33334H23.3333C23.8333 3.33334 24.1667 3.66668 24.1667 4.16668V10C24.1667 10.5 23.8333 10.8333 23.3333 10.8333Z" fill="#8BC34A"/>
<path d="M25 20H20.4167L22.25 10.8333L15 21.6667H19.5833L17.75 30.8333L25 20Z" fill="#FFEB3B"/>
</svg>
