<svg width="40" height="40" viewBox="0 0 40 40" fill="none" xmlns="http://www.w3.org/2000/svg">
<path d="M33.3333 34.1667H6.66665C4.83331 34.1667 3.33331 32.6667 3.33331 30.8333V13.4167C3.33331 12.3333 3.83331 11.3333 4.74998 10.6667L20 0L35.25 10.6667C36.1666 11.25 36.6666 12.3333 36.6666 13.4167V30.8333C36.6666 32.6667 35.1666 34.1667 33.3333 34.1667Z" fill="#78909C"/>
<path d="M30 9.16666H10V27.5H30V9.16666Z" fill="white"/>
<path d="M33.3333 34.1667H6.66665C4.83331 34.1667 3.33331 32.6667 3.33331 30.8333V14.1667L20 25L36.6666 14.1667V30.8333C36.6666 32.6667 35.1666 34.1667 33.3333 34.1667Z" fill="#CFD8DC"/>
<path d="M21.6666 11.6667H18.3333V21.6667H21.6666V11.6667Z" fill="#4CAF50"/>
<path d="M25 15H15V18.3333H25V15Z" fill="#4CAF50"/>
</svg>
