<svg width="40" height="40" viewBox="0 0 40 40" fill="none" xmlns="http://www.w3.org/2000/svg">
<path d="M35 32.5H5V19.1667L20 5L35 19.1667V32.5Z" fill="#E8EAF6"/>
<path d="M32.5 17.5L28.3334 13.3333V7.5H32.5V17.5Z" fill="#C5CAE9"/>
<path d="M35 32.5H5V36.6667H35V32.5Z" fill="#C5CAE9"/>
<path d="M20 3.58334L3.33337 19.0833L5.00004 20.9167L20 7.00001L35 20.9167L36.6667 19.0833L20 3.58334Z" fill="#B71C1C"/>
<path d="M25 23.3333H15V36.6667H25V23.3333Z" fill="#D84315"/>
<path d="M22.5 14.1667H17.5V19.1667H22.5V14.1667Z" fill="#01579B"/>
<path d="M22.9167 29.5833C22.6667 29.5833 22.5 29.75 22.5 30V31.6667C22.5 31.9167 22.6667 32.0833 22.9167 32.0833C23.1667 32.0833 23.3333 31.9167 23.3333 31.6667V30C23.3333 29.75 23.1667 29.5833 22.9167 29.5833Z" fill="#FF8A65"/>
</svg>
