<svg width="40" height="40" viewBox="0 0 40 40" fill="none" xmlns="http://www.w3.org/2000/svg">
<path d="M35 23.3333H20V35H35V23.3333Z" fill="#81D4FA"/>
<path d="M15 8.33334H5V35H15V8.33334Z" fill="#81D4FA"/>
<path d="M13.3333 6.66666H11.6667C11.6667 7.58332 10.9167 8.33332 10 8.33332C9.08333 8.33332 8.33333 7.58332 8.33333 6.66666H6.66667C6.66667 7.58332 5.91667 8.33332 5 8.33332V9.99999C6 9.99999 6.91667 9.58332 7.5 8.83332C8.08333 9.49999 9 9.99999 10 9.99999C11 9.99999 11.9167 9.58332 12.5 8.83332C13.0833 9.49999 14 9.99999 15 9.99999V8.33332C14.0833 8.33332 13.3333 7.58332 13.3333 6.66666Z" fill="#1976D2"/>
<path d="M13.3333 11.6667H11.6667C11.6667 12.5833 10.9167 13.3333 10 13.3333C9.08333 13.3333 8.33333 12.5833 8.33333 11.6667H6.66667C6.66667 12.5833 5.91667 13.3333 5 13.3333V15C6 15 6.91667 14.5833 7.5 13.8333C8.08333 14.5 9 15 10 15C11 15 11.9167 14.5833 12.5 13.8333C13.0833 14.5 14 15 15 15V13.3333C14.0833 13.3333 13.3333 12.5833 13.3333 11.6667Z" fill="#1976D2"/>
<path d="M13.3333 16.6667H11.6667C11.6667 17.5833 10.9167 18.3333 10 18.3333C9.08333 18.3333 8.33333 17.5833 8.33333 16.6667H6.66667C6.66667 17.5833 5.91667 18.3333 5 18.3333V20C6 20 6.91667 19.5833 7.5 18.8333C8.08333 19.5 9 20 10 20C11 20 11.9167 19.5833 12.5 18.8333C13.0833 19.5 14 20 15 20V18.3333C14.0833 18.3333 13.3333 17.5833 13.3333 16.6667Z" fill="#1976D2"/>
<path d="M13.3333 21.6667H11.6667C11.6667 22.5833 10.9167 23.3333 10 23.3333C9.08333 23.3333 8.33333 22.5833 8.33333 21.6667H6.66667C6.66667 22.5833 5.91667 23.3333 5 23.3333V25C6 25 6.91667 24.5833 7.5 23.8333C8.08333 24.5 9 25 10 25C11 25 11.9167 24.5833 12.5 23.8333C13.0833 24.5 14 25 15 25V23.3333C14.0833 23.3333 13.3333 22.5833 13.3333 21.6667Z" fill="#1976D2"/>
<path d="M13.3333 26.6667H11.6667C11.6667 27.5833 10.9167 28.3333 10 28.3333C9.08333 28.3333 8.33333 27.5833 8.33333 26.6667H6.66667C6.66667 27.5833 5.91667 28.3333 5 28.3333V30C6 30 6.91667 29.5833 7.5 28.8333C8.08333 29.5 9 30 10 30C11 30 11.9167 29.5833 12.5 28.8333C13.0833 29.5 14 30 15 30V28.3333C14.0833 28.3333 13.3333 27.5833 13.3333 26.6667Z" fill="#1976D2"/>
<path d="M13.3333 31.6667H11.6667C11.6667 32.5833 10.9167 33.3333 10 33.3333C9.08333 33.3333 8.33333 32.5833 8.33333 31.6667H6.66667C6.66667 32.5833 5.91667 33.3333 5 33.3333V35C6 35 6.91667 34.5833 7.5 33.8333C8.08333 34.5 9 35 10 35C11 35 11.9167 34.5833 12.5 33.8333C13.0833 34.5 14 35 15 35V33.3333C14.0833 33.3333 13.3333 32.5833 13.3333 31.6667Z" fill="#1976D2"/>
<path d="M33.3333 26.6667H31.6667C31.6667 27.5833 30.9167 28.3333 30 28.3333C29.0833 28.3333 28.3333 27.5833 28.3333 26.6667H26.6667C26.6667 27.5833 25.9167 28.3333 25 28.3333C24.0833 28.3333 23.3333 27.5833 23.3333 26.6667H21.6667C21.6667 27.5833 20.9167 28.3333 20 28.3333V30C21 30 21.9167 29.5833 22.5 28.8333C23.0833 29.5 24 30 25 30C26 30 26.9167 29.5833 27.5 28.8333C28.0833 29.5 29 30 30 30C31 30 31.9167 29.5833 32.5 28.8333C33.0833 29.5 34 30 35 30V28.3333C34.0833 28.3333 33.3333 27.5833 33.3333 26.6667Z" fill="#1976D2"/>
<path d="M33.3333 21.6667H31.6667C31.6667 22.5833 30.9167 23.3333 30 23.3333C29.0833 23.3333 28.3333 22.5833 28.3333 21.6667H26.6667C26.6667 22.5833 25.9167 23.3333 25 23.3333C24.0833 23.3333 23.3333 22.5833 23.3333 21.6667H21.6667C21.6667 22.5833 20.9167 23.3333 20 23.3333V25C21 25 21.9167 24.5833 22.5 23.8333C23.0833 24.5 24 25 25 25C26 25 26.9167 24.5833 27.5 23.8333C28.0833 24.5 29 25 30 25C31 25 31.9167 24.5833 32.5 23.8333C33.0833 24.5 34 25 35 25V23.3333C34.0833 23.3333 33.3333 22.5833 33.3333 21.6667Z" fill="#1976D2"/>
<path d="M33.3333 31.6667H31.6667C31.6667 32.5833 30.9167 33.3333 30 33.3333C29.0833 33.3333 28.3333 32.5833 28.3333 31.6667H26.6667C26.6667 32.5833 25.9167 33.3333 25 33.3333V35C26 35 26.9167 34.5833 27.5 33.8333C28.0833 34.5 29 35 30 35C31 35 31.9167 34.5833 32.5 33.8333C33.0833 34.5 34 35 35 35V33.3333C34.0833 33.3333 33.3333 32.5833 33.3333 31.6667Z" fill="#1976D2"/>
<path d="M20.9167 7.66667L26.25 35H15V5H17.6667C19.25 5 20.6667 6.16667 20.9167 7.66667Z" fill="#455A64"/>
</svg>
