<svg width="40" height="40" viewBox="0 0 40 40" fill="none" xmlns="http://www.w3.org/2000/svg">
<path d="M35 35H5V7.49999L20 1.66666L35 7.49999V35Z" fill="#C5CAE9"/>
<path d="M35 35H5V36.6667H35V35Z" fill="#9FA8DA"/>
<path d="M23.3333 29.1667H16.6666V36.6667H23.3333V29.1667Z" fill="#BF360C"/>
<path d="M30.8333 22.5H25.8333V26.6667H30.8333V22.5Z" fill="#1565C0"/>
<path d="M22.5 22.5H17.5V26.6667H22.5V22.5Z" fill="#1565C0"/>
<path d="M14.1666 22.5H9.16663V26.6667H14.1666V22.5Z" fill="#1565C0"/>
<path d="M30.8333 29.1667H25.8333V33.3333H30.8333V29.1667Z" fill="#1565C0"/>
<path d="M14.1666 29.1667H9.16663V33.3333H14.1666V29.1667Z" fill="#1565C0"/>
<path d="M30.8333 15.8333H25.8333V20H30.8333V15.8333Z" fill="#1565C0"/>
<path d="M22.5 15.8333H17.5V20H22.5V15.8333Z" fill="#1565C0"/>
<path d="M14.1666 15.8333H9.16663V20H14.1666V15.8333Z" fill="#1565C0"/>
<path d="M30.8333 9.16666H25.8333V13.3333H30.8333V9.16666Z" fill="#1565C0"/>
<path d="M22.5 9.16666H17.5V13.3333H22.5V9.16666Z" fill="#1565C0"/>
<path d="M14.1666 9.16666H9.16663V13.3333H14.1666V9.16666Z" fill="#1565C0"/>
</svg>
