<svg width="24" height="24" viewBox="0 0 24 24" fill="none" xmlns="http://www.w3.org/2000/svg">
<path d="M18.5 12C18.5 15.5899 15.5899 18.5 12 18.5C8.41015 18.5 5.5 15.5899 5.5 12C5.5 8.41015 8.41015 5.5 12 5.5C15.5899 5.5 18.5 8.41015 18.5 12Z" stroke="#1363DF"/>
<path d="M11.4014 13.5191V13.479C11.4059 13.0529 11.4512 12.7138 11.5374 12.4618C11.6236 12.2097 11.746 12.0056 11.9048 11.8494C12.0635 11.6933 12.254 11.5494 12.4762 11.4178C12.61 11.3375 12.7302 11.2427 12.8367 11.1334C12.9433 11.0218 13.0272 10.8936 13.0884 10.7486C13.1519 10.6036 13.1837 10.443 13.1837 10.2667C13.1837 10.0481 13.1315 9.85851 13.0272 9.6979C12.9229 9.53728 12.7834 9.41348 12.6088 9.32648C12.4342 9.23948 12.2404 9.19598 12.0272 9.19598C11.8413 9.19598 11.6621 9.23391 11.4898 9.30975C11.3175 9.3856 11.1735 9.50494 11.0578 9.66778C10.9422 9.83062 10.8753 10.0437 10.8571 10.3069H10C10.0181 9.92766 10.1179 9.60309 10.2993 9.33317C10.483 9.06326 10.7245 8.85692 11.0238 8.71415C11.3254 8.57138 11.6599 8.5 12.0272 8.5C12.4263 8.5 12.7732 8.57808 13.068 8.73423C13.3651 8.89038 13.5941 9.10453 13.7551 9.37667C13.9184 9.64882 14 9.95889 14 10.3069C14 10.5523 13.9615 10.7742 13.8844 10.9728C13.8095 11.1713 13.7007 11.3486 13.5578 11.5048C13.4172 11.6609 13.2472 11.7992 13.0476 11.9197C12.8481 12.0424 12.6882 12.1718 12.568 12.3078C12.4478 12.4417 12.3605 12.6012 12.3061 12.7863C12.2517 12.9715 12.2222 13.2024 12.2177 13.479V13.5191H11.4014ZM11.8367 15.5C11.6689 15.5 11.5249 15.4409 11.4048 15.3227C11.2846 15.2044 11.2245 15.0628 11.2245 14.8977C11.2245 14.7326 11.2846 14.591 11.4048 14.4728C11.5249 14.3545 11.6689 14.2954 11.8367 14.2954C12.0045 14.2954 12.1485 14.3545 12.2687 14.4728C12.3889 14.591 12.449 14.7326 12.449 14.8977C12.449 15.007 12.4206 15.1074 12.3639 15.1989C12.3095 15.2903 12.2358 15.3639 12.1429 15.4197C12.0522 15.4732 11.9501 15.5 11.8367 15.5Z" fill="#1363DF"/>
<path fill-rule="evenodd" clip-rule="evenodd" d="M11.2013 13.7189V13.4766C11.206 13.0404 11.2522 12.6775 11.3481 12.3969C11.4424 12.1211 11.5796 11.8885 11.7645 11.7067C11.9363 11.5376 12.1399 11.3843 12.3737 11.2458C12.4926 11.1744 12.5988 11.0906 12.6928 10.9943C12.7819 10.9008 12.8523 10.7934 12.9041 10.6706L12.9052 10.6681C12.9564 10.5512 12.9836 10.4183 12.9836 10.2665C12.9836 10.081 12.9398 9.9304 12.8594 9.80663C12.775 9.67655 12.6629 9.57668 12.5196 9.5053C12.3752 9.43335 12.2123 9.39579 12.0272 9.39579C11.8693 9.39579 11.7176 9.4278 11.5703 9.49261C11.4331 9.55301 11.3169 9.64814 11.2208 9.78339C11.1323 9.90804 11.073 10.0824 11.0566 10.3204L11.0438 10.5067H9.79016L9.80019 10.2971C9.81977 9.88765 9.92833 9.52638 10.1333 9.22142L10.1339 9.22046C10.3379 8.92078 10.6069 8.6912 10.9377 8.53344C11.2686 8.37678 11.6332 8.2998 12.0272 8.2998C12.4525 8.2998 12.8328 8.38314 13.1616 8.55729C13.4889 8.72947 13.746 8.9685 13.9269 9.27412C14.1104 9.58017 14.2 9.92628 14.2 10.3067C14.2 10.5727 14.1582 10.8194 14.0711 11.044C13.9874 11.2657 13.8655 11.4644 13.7059 11.639C13.5511 11.8108 13.3657 11.961 13.1517 12.0903C12.9647 12.2053 12.8217 12.3225 12.7179 12.44L12.7168 12.4413C12.618 12.5513 12.5446 12.6839 12.498 12.8425C12.4504 13.0044 12.4221 13.2155 12.4176 13.4804V13.7189H11.2013ZM12.2176 13.4788C12.2222 13.2022 12.2517 12.9713 12.3061 12.7861C12.3605 12.601 12.4478 12.4415 12.568 12.3076C12.6882 12.1716 12.848 12.0422 13.0476 11.9195C13.2471 11.799 13.4172 11.6607 13.5578 11.5046C13.7006 11.3484 13.8095 11.1711 13.8843 10.9726C13.9614 10.774 14 10.5521 14 10.3067C14 9.9587 13.9183 9.64863 13.7551 9.37648C13.5941 9.10433 13.365 8.89018 13.068 8.73403C12.7732 8.57788 12.4263 8.4998 12.0272 8.4998C11.6598 8.4998 11.3254 8.57119 11.0238 8.71395C10.7244 8.85672 10.483 9.06306 10.2993 9.33298C10.1506 9.55418 10.0568 9.81208 10.0178 10.1067C10.0092 10.1716 10.0032 10.2382 9.99996 10.3067H10.8571C10.8752 10.0435 10.9421 9.83043 11.0578 9.66759C11.1734 9.50474 11.3174 9.3854 11.4898 9.30956C11.6621 9.23371 11.8412 9.19579 12.0272 9.19579C12.2403 9.19579 12.4342 9.23929 12.6088 9.32629C12.7834 9.41328 12.9229 9.53709 13.0272 9.6977C13.1315 9.85831 13.1836 10.0479 13.1836 10.2665C13.1836 10.4428 13.1519 10.6034 13.0884 10.7484C13.0272 10.8934 12.9433 11.0216 12.8367 11.1332C12.7301 11.2425 12.6099 11.3373 12.4761 11.4176C12.2539 11.5492 12.0634 11.6931 11.9047 11.8492C11.746 12.0054 11.6235 12.2095 11.5374 12.4616C11.4623 12.6813 11.4182 12.9671 11.4051 13.3189C11.4032 13.3708 11.4019 13.4241 11.4013 13.4788V13.5189H12.2176V13.4788ZM12.2445 15.5917C12.1206 15.6648 11.983 15.6998 11.8367 15.6998C11.6161 15.6998 11.4219 15.6199 11.2645 15.465C11.107 15.3101 11.0244 15.1175 11.0244 14.8975C11.0244 14.6776 11.107 14.4849 11.2645 14.33C11.4219 14.1751 11.6161 14.0952 11.8367 14.0952C12.0572 14.0952 12.2515 14.1751 12.4089 14.33C12.5664 14.4849 12.6489 14.6776 12.6489 14.8975C12.6489 15.0428 12.6108 15.1793 12.5349 15.3025C12.4633 15.4222 12.366 15.5189 12.2457 15.591L12.2445 15.5917ZM12.3639 15.1987C12.4206 15.1072 12.4489 15.0068 12.4489 14.8975C12.4489 14.7324 12.3888 14.5908 12.2687 14.4726C12.1485 14.3543 12.0045 14.2952 11.8367 14.2952C11.6689 14.2952 11.5249 14.3543 11.4047 14.4726C11.2845 14.5908 11.2244 14.7324 11.2244 14.8975C11.2244 15.0626 11.2845 15.2042 11.4047 15.3225C11.5249 15.4407 11.6689 15.4998 11.8367 15.4998C11.9501 15.4998 12.0521 15.473 12.1428 15.4195C12.2358 15.3637 12.3095 15.2901 12.3639 15.1987Z" fill="#1363DF"/>
</svg>
