<svg width="105" height="41" viewBox="0 0 105 41" fill="none" xmlns="http://www.w3.org/2000/svg">
<path d="M15.07 30.01C14.08 30.01 11.98 29.88 10.56 29.48C10.25 29.39 10.08 29.19 10.08 28.86V27.28C10.08 27.06 10.26 26.86 10.52 26.86H10.63C11.83 27.01 14.11 27.15 14.86 27.15C16.42 27.15 16.66 26.6 16.66 25.88C16.66 25.37 16.35 25.07 15.54 24.54L12.1 22.32C10.87 21.53 10 20.21 10 18.67C10 16.03 11.58 14.71 14.77 14.71C16.81 14.71 17.97 14.95 19.24 15.24C19.55 15.33 19.7 15.53 19.7 15.86V17.4C19.7 17.71 19.55 17.91 19.31 17.91H19.2C18.5 17.8 16.48 17.6 15.04 17.6C13.84 17.6 13.31 17.89 13.31 18.7C13.31 19.12 13.68 19.38 14.32 19.78L17.63 21.89C19.75 23.23 20.04 24.55 20.04 25.89C20.04 28.18 18.4 30.02 15.11 30.02H15.09L15.07 30.01Z" fill="#06283D"/>
<path d="M33.89 23.59H25.7V23.68C25.7 25.22 26.31 27.02 28.72 27.02C30.56 27.02 32.29 26.87 33.34 26.76H33.41C33.67 26.76 33.87 26.89 33.87 27.16V28.9C33.87 29.32 33.8 29.52 33.34 29.58C31.7 29.89 30.73 30.02 28.46 30.02C25.94 30.02 22.37 28.59 22.37 23.4V21.44C22.37 17.33 24.56 14.74 28.42 14.74C32.28 14.74 34.4 17.51 34.4 21.44V22.91C34.4 23.33 34.25 23.57 33.9 23.57V23.59H33.89ZM31.04 21C31.04 18.93 29.97 17.77 28.39 17.77C26.81 17.77 25.7 18.93 25.7 21V21.11H31.04V21Z" fill="#06283D"/>
<path d="M44.03 17.92C42.67 17.92 41.62 18.29 40.55 18.87V29.46C40.55 29.75 40.33 30.01 40.05 30.01H37.73C37.45 30.01 37.23 29.75 37.23 29.46V15.68C37.23 15.39 37.45 15.15 37.73 15.15H39.92C40.2 15.15 40.42 15.39 40.42 15.68V16.23C41.65 15.22 43 14.96 44.01 14.96C44.29 14.96 44.51 15.2 44.51 15.49V17.38C44.51 17.67 44.29 17.91 44.01 17.91L44.03 17.93V17.92Z" fill="#06283D"/>
<path d="M49.63 13.39H47.2C46.92 13.39 46.67 13.15 46.67 12.86V10.53C46.67 10.24 46.93 10 47.2 10H49.63C49.91 10 50.13 10.24 50.13 10.53V12.86C50.13 13.15 49.91 13.39 49.63 13.39ZM49.57 30.01H47.25C46.97 30.01 46.75 29.75 46.75 29.46V15.68C46.75 15.39 46.97 15.15 47.25 15.15H49.57C49.85 15.15 50.07 15.39 50.07 15.68V29.46C50.07 29.75 49.85 30.01 49.57 30.01Z" fill="#06283D"/>
<path d="M47.2 13.39H49.63C49.91 13.39 50.13 13.15 50.13 12.86V10.53C50.13 10.24 49.91 10 49.63 10H47.2C46.94 10 46.67 10.24 46.67 10.53V12.86C46.67 13.15 46.91 13.39 47.2 13.39Z" fill="#06283D"/>
<path d="M64.53 23.59H56.34V23.68C56.34 25.22 56.95 27.02 59.36 27.02C61.2 27.02 62.93 26.87 63.98 26.76H64.05C64.31 26.76 64.51 26.89 64.51 27.16V28.9C64.51 29.32 64.44 29.52 63.98 29.58C62.34 29.89 61.37 30.02 59.1 30.02C56.58 30.02 53.01 28.59 53.01 23.4V21.44C53.01 17.33 55.2 14.74 59.06 14.74C62.92 14.74 65.04 17.51 65.04 21.44V22.91C65.04 23.33 64.89 23.57 64.54 23.57V23.59H64.53ZM61.68 21C61.68 18.93 60.61 17.77 59.03 17.77C57.45 17.77 56.34 18.93 56.34 21V21.11H61.68V21Z" fill="#06283D"/>
<path d="M72.48 30.01C71.49 30.01 69.39 29.88 67.97 29.48C67.66 29.39 67.49 29.19 67.49 28.86V27.28C67.49 27.06 67.67 26.86 67.93 26.86H68.04C69.24 27.01 71.52 27.15 72.27 27.15C73.83 27.15 74.07 26.6 74.07 25.88C74.07 25.37 73.76 25.07 72.95 24.54L69.51 22.32C68.28 21.53 67.41 20.21 67.41 18.67C67.41 16.03 68.99 14.71 72.18 14.71C74.22 14.71 75.38 14.95 76.65 15.24C76.96 15.33 77.11 15.53 77.11 15.86V17.4C77.11 17.71 76.96 17.91 76.72 17.91H76.61C75.91 17.8 73.89 17.6 72.45 17.6C71.25 17.6 70.72 17.89 70.72 18.7C70.72 19.12 71.09 19.38 71.73 19.78L75.04 21.89C77.16 23.23 77.45 24.55 77.45 25.89C77.45 28.18 75.81 30.02 72.52 30.02H72.5L72.48 30.01Z" fill="#06283D"/>
<path d="M87.56 30.01C83.49 30.01 80.99 27.55 80.99 21V19.04C80.99 12.47 83.49 10.01 87.56 10.01C91.63 10.01 94.13 12.49 94.13 19.04V21C94.13 27.57 91.63 30.01 87.56 30.01ZM90.63 19.04C90.63 14.27 89.29 12.97 87.56 12.97C85.83 12.97 84.49 14.27 84.49 19.04V21C84.49 25.77 85.83 27.04 87.56 27.04C89.29 27.04 90.63 25.77 90.63 21V19.04Z" fill="#06283D"/>
<path d="M90.71 15.01L92.25 16.55L83.87 24.93L82.33 23.39L90.71 15.01Z" fill="#06283D"/>
</svg>
